<?xml version="1.0" encoding="UTF-8" standalone="no"?>
<!DOCTYPE svg PUBLIC "-//W3C//DTD SVG 1.1//EN" "http://www.w3.org/Graphics/SVG/1.1/DTD/svg11.dtd">
<svg width="100%" height="100%" viewBox="0 0 400 400" version="1.1" xmlns="http://www.w3.org/2000/svg" xmlns:xlink="http://www.w3.org/1999/xlink" xml:space="preserve" xmlns:serif="http://www.serif.com/" style="fill-rule:evenodd;clip-rule:evenodd;stroke-linejoin:round;stroke-miterlimit:2;">
    <g id="MOON" transform="matrix(8.27659,0,0,8.27659,9.12765,-11.1163)">
        <path d="M22.529,6.954C14.782,8.086 9.252,12.176 7.237,18.385C5.191,24.691 5.421,31.851 9.732,36.945C14.519,42.344 19.717,44.198 25,43.925C31.168,43.606 36.643,41.199 40.404,35.38C33.13,36.563 26.97,34.612 22.351,28.331C17.349,21.126 17.988,14.01 22.529,6.954Z" style="fill:rgb(239,218,69);"/>
        <path d="M8.836,14.956C8.046,24.699 10.702,31.146 16.352,35.046C21.795,38.802 29.332,39.811 40.404,35.38C34.056,45.76 20.323,46.388 12.173,39.618C4.577,33.308 3.983,23.142 8.836,14.956Z" style="fill:rgb(237,194,72);"/>
    </g>
    <g id="CLOUD" transform="matrix(6.41903,0,0,6.41903,67.3834,120.217)">
        <path d="M20.478,18.393C26.696,14.376 32.052,14.636 35.845,22.65C41.25,24.07 43.126,26.206 43.017,29.676C42.921,32.735 41.413,35.107 37.629,36.345L13.745,36.336C9.15,34.931 8.282,31.815 8.225,29.601C8.159,27.033 9.662,24.824 12.518,23.369C13.997,19.311 16.631,17.615 20.478,18.393Z" style="fill:rgb(236,234,237);"/>
        <path d="M20.478,18.393C16.588,21.57 14.114,25.056 14.551,29.18C15.1,33.383 24.694,34.95 30.883,35.39C34.301,35.633 36.104,36.432 36.9,36.345L13.583,36.345C10.033,35.358 8.386,32.992 8.223,29.554C8.177,26.702 9.896,24.742 12.657,23.308C14.138,18.738 16.95,17.635 20.478,18.393Z" style="fill:rgb(219,219,224);"/>
    </g>
</svg>
