<?xml version="1.0" encoding="UTF-8" standalone="no"?>
<!DOCTYPE svg PUBLIC "-//W3C//DTD SVG 1.1//EN" "http://www.w3.org/Graphics/SVG/1.1/DTD/svg11.dtd">
<svg width="100%" height="100%" viewBox="0 0 400 400" version="1.1" xmlns="http://www.w3.org/2000/svg" xmlns:xlink="http://www.w3.org/1999/xlink" xml:space="preserve" xmlns:serif="http://www.serif.com/" style="fill-rule:evenodd;clip-rule:evenodd;stroke-linejoin:round;stroke-miterlimit:2;">
    <g id="RAINCLOUD" transform="matrix(8.88708,0,0,8.88708,-22.1769,-90.7723)">
        <g id="CLOUD" transform="matrix(1,0,0,1,-0.621738,-1.09974)">
            <path d="M20.478,18.393C26.696,14.376 32.052,14.636 35.845,22.65C41.25,24.07 43.126,26.206 43.017,29.676C42.921,32.735 41.413,35.107 37.629,36.345L13.745,36.336C9.15,34.931 8.282,31.815 8.225,29.601C8.159,27.033 9.662,24.824 12.518,23.369C13.997,19.311 16.631,17.615 20.478,18.393Z" style="fill:rgb(236,234,237);"/>
            <path d="M20.478,18.393C16.588,21.57 14.114,25.056 14.551,29.18C15.1,33.383 24.694,34.95 30.883,35.39C34.301,35.633 36.104,36.432 36.9,36.345L13.583,36.345C10.033,35.358 8.386,32.992 8.223,29.554C8.177,26.702 9.896,24.742 12.657,23.308C14.138,18.738 16.95,17.635 20.478,18.393Z" style="fill:rgb(219,219,224);"/>
        </g>
        <g id="RAIN" transform="matrix(1.50298,0,0,1.50298,-12.7668,-19.3678)">
            <g id="DROP">
                <g transform="matrix(1.02697,0,0,1.0254,-0.743506,-1.26215)">
                    <path d="M19.231,38.304C19.227,38.299 19.22,38.296 19.213,38.296C19.207,38.296 19.2,38.299 19.196,38.305C19.037,38.498 17.843,39.975 17.843,40.633C17.843,41.445 18.401,42.105 19.213,42.105C20.026,42.105 20.602,41.445 20.602,40.633C20.602,39.975 19.391,38.497 19.231,38.304Z" style="fill:rgb(96,183,255);"/>
                </g>
                <path d="M19.462,38.596C20.069,39.242 20.484,39.949 20.407,40.638C20.349,41.163 20.092,41.611 19.426,41.846C18.108,41.04 18.304,39.918 19.462,38.596Z" style="fill:rgb(138,201,254);"/>
            </g>
            <g id="DROP1" serif:id="DROP" transform="matrix(1,0,0,1,6.0788,0)">
                <g transform="matrix(1.02697,0,0,1.0254,-0.743506,-1.26215)">
                    <path d="M19.231,38.304C19.227,38.299 19.22,38.296 19.213,38.296C19.207,38.296 19.2,38.299 19.196,38.305C19.037,38.498 17.843,39.975 17.843,40.633C17.843,41.445 18.401,42.105 19.213,42.105C20.026,42.105 20.602,41.445 20.602,40.633C20.602,39.975 19.391,38.497 19.231,38.304Z" style="fill:rgb(96,183,255);"/>
                </g>
                <path d="M19.462,38.596C20.069,39.242 20.484,39.949 20.407,40.638C20.349,41.163 20.092,41.611 19.426,41.846C18.108,41.04 18.304,39.918 19.462,38.596Z" style="fill:rgb(138,201,254);"/>
            </g>
            <g id="DROP2" serif:id="DROP" transform="matrix(1,0,0,1,12.2591,0)">
                <g transform="matrix(1.02697,0,0,1.0254,-0.743506,-1.26215)">
                    <path d="M19.231,38.304C19.227,38.299 19.22,38.296 19.213,38.296C19.207,38.296 19.2,38.299 19.196,38.305C19.037,38.498 17.843,39.975 17.843,40.633C17.843,41.445 18.401,42.105 19.213,42.105C20.026,42.105 20.602,41.445 20.602,40.633C20.602,39.975 19.391,38.497 19.231,38.304Z" style="fill:rgb(96,183,255);"/>
                </g>
                <path d="M19.462,38.596C20.069,39.242 20.484,39.949 20.407,40.638C20.349,41.163 20.092,41.611 19.426,41.846C18.108,41.04 18.304,39.918 19.462,38.596Z" style="fill:rgb(138,201,254);"/>
            </g>
            <g id="DROP3" serif:id="DROP" transform="matrix(1,0,0,1,9.18527,4.6992)">
                <g transform="matrix(1.02697,0,0,1.0254,-0.743506,-1.26215)">
                    <path d="M19.231,38.304C19.227,38.299 19.22,38.296 19.213,38.296C19.207,38.296 19.2,38.299 19.196,38.305C19.037,38.498 17.843,39.975 17.843,40.633C17.843,41.445 18.401,42.105 19.213,42.105C20.026,42.105 20.602,41.445 20.602,40.633C20.602,39.975 19.391,38.497 19.231,38.304Z" style="fill:rgb(96,183,255);"/>
                </g>
                <path d="M19.462,38.596C20.069,39.242 20.484,39.949 20.407,40.638C20.349,41.163 20.092,41.611 19.426,41.846C18.108,41.04 18.304,39.918 19.462,38.596Z" style="fill:rgb(138,201,254);"/>
            </g>
            <g id="DROP4" serif:id="DROP" transform="matrix(1,0,0,1,3.03467,4.6992)">
                <g transform="matrix(1.02697,0,0,1.0254,-0.743506,-1.26215)">
                    <path d="M19.231,38.304C19.227,38.299 19.22,38.296 19.213,38.296C19.207,38.296 19.2,38.299 19.196,38.305C19.037,38.498 17.843,39.975 17.843,40.633C17.843,41.445 18.401,42.105 19.213,42.105C20.026,42.105 20.602,41.445 20.602,40.633C20.602,39.975 19.391,38.497 19.231,38.304Z" style="fill:rgb(96,183,255);"/>
                </g>
                <path d="M19.462,38.596C20.069,39.242 20.484,39.949 20.407,40.638C20.349,41.163 20.092,41.611 19.426,41.846C18.108,41.04 18.304,39.918 19.462,38.596Z" style="fill:rgb(138,201,254);"/>
            </g>
        </g>
    </g>
</svg>
