<?xml version="1.0" encoding="UTF-8" standalone="no"?>
<!DOCTYPE svg PUBLIC "-//W3C//DTD SVG 1.1//EN" "http://www.w3.org/Graphics/SVG/1.1/DTD/svg11.dtd">
<svg width="100%" height="100%" viewBox="0 0 400 400" version="1.1" xmlns="http://www.w3.org/2000/svg" xmlns:xlink="http://www.w3.org/1999/xlink" xml:space="preserve" xmlns:serif="http://www.serif.com/" style="fill-rule:evenodd;clip-rule:evenodd;stroke-linecap:round;stroke-linejoin:round;stroke-miterlimit:1.5;">
    <g id="SUN" transform="matrix(7.84028,0,0,7.84028,-228.256,-201.747)">
        <g transform="matrix(1.02199,0,0,1.02199,-1.2014,-1.12704)">
            <path d="M54.666,32.521L54.672,35.524" style="fill:none;stroke:rgb(255,211,72);stroke-width:2px;"/>
        </g>
        <g transform="matrix(1.02199,0,0,1.02199,-1.19473,34.0679)">
            <path d="M54.666,32.521L54.672,35.524" style="fill:none;stroke:rgb(255,211,72);stroke-width:2px;"/>
        </g>
        <g transform="matrix(0.893521,-0.496077,0.496077,0.893521,-2.00029,63.2622)">
            <path d="M54.666,32.521L54.672,35.524" style="fill:none;stroke:rgb(255,211,72);stroke-width:2px;"/>
        </g>
        <g transform="matrix(0.893521,-0.496077,0.496077,0.893521,-20.1885,32.6474)">
            <path d="M54.666,32.521L54.672,35.524" style="fill:none;stroke:rgb(255,211,72);stroke-width:2px;"/>
        </g>
        <g transform="matrix(0.502537,-0.889904,0.889904,0.502537,-18.8956,73.9594)">
            <path d="M54.666,32.521L54.672,35.524" style="fill:none;stroke:rgb(255,211,72);stroke-width:2px;"/>
        </g>
        <g transform="matrix(0.502537,-0.889904,0.889904,0.502537,12.6638,91.5171)">
            <path d="M54.666,32.521L54.672,35.524" style="fill:none;stroke:rgb(255,211,72);stroke-width:2px;"/>
        </g>
        <g transform="matrix(0.00265712,-1.02199,1.02199,0.00265712,37.8715,107.085)">
            <path d="M54.666,32.521L54.672,35.524" style="fill:none;stroke:rgb(255,211,72);stroke-width:2px;"/>
        </g>
        <g transform="matrix(0.00265712,-1.02199,1.02199,0.00265712,1.54133,107.084)">
            <path d="M54.666,32.521L54.672,35.524" style="fill:none;stroke:rgb(255,211,72);stroke-width:2px;"/>
        </g>
        <g transform="matrix(-0.542339,-0.866222,0.866222,-0.542339,38.9373,126.015)">
            <path d="M54.666,32.521L54.672,35.524" style="fill:none;stroke:rgb(255,211,72);stroke-width:2px;"/>
        </g>
        <g transform="matrix(-0.542339,-0.866222,0.866222,-0.542339,70.5301,108.146)">
            <path d="M54.666,32.521L54.672,35.524" style="fill:none;stroke:rgb(255,211,72);stroke-width:2px;"/>
        </g>
        <g transform="matrix(-0.851862,-0.564628,0.564628,-0.851862,72.8502,126.318)">
            <path d="M54.666,32.521L54.672,35.524" style="fill:none;stroke:rgb(255,211,72);stroke-width:2px;"/>
        </g>
        <g transform="matrix(-0.851862,-0.564628,0.564628,-0.851862,91.0447,95.7812)">
            <path d="M54.666,32.521L54.672,35.524" style="fill:none;stroke:rgb(255,211,72);stroke-width:2px;"/>
        </g>
        <g transform="matrix(1.13163,0,0,1.13163,-7.61337,-6.72045)">
            <g transform="matrix(0.894359,0,0,1,6.95964,0.899199)">
                <ellipse cx="53.14" cy="50.313" rx="11.76" ry="9.971" style="fill:rgb(255,211,72);stroke:rgb(255,211,72);stroke-width:0.24px;"/>
            </g>
            <g transform="matrix(1,0,0,1,-0.928243,0)">
                <path d="M54.486,41.146C60.747,43.746 63.282,46.544 63.402,51.168C63.51,55.341 61.436,58.434 54.678,61.303C62.039,61.335 65.833,57.37 65.991,51.623C66.498,43.977 59.109,40.689 54.486,41.146Z" style="fill:rgb(255,191,51);"/>
            </g>
        </g>
    </g>
    <g id="CLOUD" transform="matrix(6.41903,0,0,6.41903,78.295,116.66)">
        <path d="M20.478,18.393C26.696,14.376 32.052,14.636 35.845,22.65C41.25,24.07 43.126,26.206 43.017,29.676C42.921,32.735 41.413,35.107 37.629,36.345L13.745,36.336C9.15,34.931 8.282,31.815 8.225,29.601C8.159,27.033 9.662,24.824 12.518,23.369C13.997,19.311 16.631,17.615 20.478,18.393Z" style="fill:rgb(236,234,237);"/>
        <path d="M20.478,18.393C16.588,21.57 14.114,25.056 14.551,29.18C15.1,33.383 24.694,34.95 30.883,35.39C34.301,35.633 36.104,36.432 36.9,36.345L13.583,36.345C10.033,35.358 8.386,32.992 8.223,29.554C8.177,26.702 9.896,24.742 12.657,23.308C14.138,18.738 16.95,17.635 20.478,18.393Z" style="fill:rgb(219,219,224);"/>
    </g>
</svg>
