<?xml version="1.0" encoding="UTF-8" standalone="no"?>
<!DOCTYPE svg PUBLIC "-//W3C//DTD SVG 1.1//EN" "http://www.w3.org/Graphics/SVG/1.1/DTD/svg11.dtd">
<svg width="100%" height="100%" viewBox="0 0 400 400" version="1.1" xmlns="http://www.w3.org/2000/svg" xmlns:xlink="http://www.w3.org/1999/xlink" xml:space="preserve" xmlns:serif="http://www.serif.com/" style="fill-rule:evenodd;clip-rule:evenodd;stroke-linejoin:round;stroke-miterlimit:2;">
    <g transform="matrix(8.27659,0,0,8.27659,9.12765,-11.1163)">
        <g id="MOON">
            <g id="MOON1" serif:id="MOON">
                <path d="M22.529,6.954C14.782,8.086 9.252,12.176 7.237,18.385C5.191,24.691 5.421,31.851 9.732,36.945C14.519,42.344 19.717,44.198 25,43.925C31.168,43.606 36.643,41.199 40.404,35.38C33.13,36.563 26.97,34.612 22.351,28.331C17.349,21.126 17.988,14.01 22.529,6.954Z" style="fill:rgb(239,218,69);"/>
                <path d="M8.836,14.956C8.046,24.699 10.702,31.146 16.352,35.046C21.795,38.802 29.332,39.811 40.404,35.38C34.056,45.76 20.323,46.388 12.173,39.618C4.577,33.308 3.983,23.142 8.836,14.956Z" style="fill:rgb(237,194,72);"/>
            </g>
        </g>
    </g>
</svg>
